<svg xmlns="http://www.w3.org/2000/svg" viewBox="0 0 128 160" style="&#10;    fill: #0B0E36;&#10;    transform: rotate(-15deg);&#10;    filter: drop-shadow(.2rem .4rem .5rem black);&#10;"><switch><g xmlns:i="http://ns.adobe.com/AdobeIllustrator/10.0/" i:extraneous="self"><g i:layer="yes" i:dimmedPercent="50" i:rgbTrio="#4F008000FFFF"><g i:knockout="Off"><path i:knockout="Off" d="M80.4,73.7c-0.2,0.9-0.6,1.6-0.6,2.3c0,1.6-1,1.7-2.6,0.9c-1.6-0.8-0.6,1.3-0.9,3.3      c-0.3,2-2.8,3.9-3.5,5.2c-0.8,1.3-2,0.1-2.1-1.3c-0.1-1.4,1.1-4.1-0.5-6.9c-1.3-2.4-5-1.5-6.1-1.2c-1.1-0.3-4.8-1.1-6.1,1.2      c-1.6,2.8-0.4,5.5-0.5,6.9c-0.1,1.4-1.4,2.6-2.1,1.3c-0.8-1.3-3.2-3.2-3.5-5.2c-0.3-2,0.7-4-0.9-3.3c-1.6,0.8-2.6,0.6-2.6-0.9      c0-0.7-0.4-1.4-0.6-2.3c-0.6-0.1-1.1-0.1-1.3,0.1c-0.4,0.5-0.9,2.5-0.4,4.8c0.6,2.3,1.3,2.7,2.8,4.6c1.5,1.9,2.7,1.3,3.7,4      c1,2.8,0.6,3.4,2.4,4.1c1.8,0.7,2,0.9,3.8,0.7c1.8-0.2,1.8,0.1,3.1,0.3c0.6,0.1,1,0,1.2,0c0.3-0.1,0.5-0.1,0.7,0      c0.1,0,0.2,0.1,0.3,0.2c0.1-0.1,0.2-0.2,0.3-0.2c0.2-0.1,0.4-0.1,0.7,0c0.3,0,0.6,0.1,1.2,0c1.3-0.1,1.3-0.4,3.1-0.3      c1.8,0.2,2,0,3.8-0.7c1.8-0.7,1.4-1.3,2.4-4.1c1-2.8,2.3-2.1,3.7-4c1.5-1.9,2.2-2.3,2.8-4.6c0.6-2.3,0-4.3-0.4-4.8      C81.5,73.5,81,73.6,80.4,73.7z"/><path i:knockout="Off" d="M111.1,61.8c-1.6-2.4-2.1-2.7-2.2-4.8c-0.1-2.2,0.2-3.4-1.8-5.7c-2-2.3-2.5-3.4-2.2-6.4      c0.3-3-0.1-7.3-1.2-8.7c0,0-0.4,2.7-0.9,3.3c-0.5,0.7-0.6-3.7-0.9-4.8c-0.4-1.1-0.9-2.6-2-3.2c-1.1-0.7-1.5-2.5-1.5-2.5      s4.3-20.3-6.1-24.8c0,0-2.5-0.9-4.5,3.6c-2,4.5-8.5,7.3-10.2,9.6c-1.7,2.3-2.6,2.6-2.8,2.6c-0.3,0-7.1-1.7-10.8-1.7      c-3.7,0-10.5,1.7-10.8,1.7c-0.3,0-1.1-0.3-2.8-2.6c-1.7-2.3-8.2-5.1-10.2-9.6c-2-4.5-4.5-3.6-4.5-3.6      c-10.3,4.5-6.1,24.8-6.1,24.8s-0.4,1.8-1.5,2.5c-1.1,0.7-1.6,2.1-2,3.2c-0.4,1.1-0.5,5.5-0.9,4.8c-0.5-0.7-0.9-3.3-0.9-3.3      c-1.1,1.4-1.5,5.7-1.2,8.7c0.3,3-0.2,4.2-2.2,6.4c-2,2.3-1.7,3.5-1.8,5.7c-0.1,2.2-0.6,2.5-2.2,4.8c-1.6,2.4-3.8,6.8-3.8,6.8      s0.9,0.4,1.7,0.7c0.8,0.3,1.4,0.9,2.2,1.2c0.8,0.3,0.9,0.8,1.6,1.2c0.7,0.5,0,0.9-0.4,1.8c-0.4,0.9,0.6,1.4,1.8,2      c1.2,0.6,1.4,1.1,2,2.4c0.6,1.2,0.7,2.6,2,3c1.3,0.5,0.9,1.3,1.1,2.6c0.2,1.2,0.9,1.6,2.5,1.9c1.5,0.3,0.8,0.9,0.9,2.3      c0.1,1.4,1.5,1.7,3.6,1.6c2.1-0.1,0.9,0.7,4.1,3.7c3.2,3,8.1,7,12.9,13.1c4.7,6.1,11.8,18,15,18c3.2,0,10.2-11.9,15-18      c4.7-6.1,9.7-10,12.9-13.1c3.2-3,2-3.8,4.1-3.7c2.1,0.1,3.5-0.2,3.6-1.6c0.1-1.4-0.7-2,0.9-2.3c1.5-0.3,2.3-0.7,2.5-1.9      c0.2-1.2-0.2-2.1,1.1-2.6c1.3-0.5,1.4-1.8,2-3c0.6-1.2,0.8-1.8,2-2.4c1.2-0.6,2.2-1.1,1.8-2c-0.4-0.9-1-1.3-0.4-1.8      c0.7-0.5,0.9-1,1.6-1.2c0.8-0.3,1.4-1,2.2-1.2c0.8-0.3,1.7-0.7,1.7-0.7S112.7,64.1,111.1,61.8z M87.7,16.8      c2.5-3.9,2.6-4.9,4.3-6.7c1.7-1.8,2.3-0.5,4.3,2.7c2,3.2,0.8,4.4,0.9,8.8c0.2,4.5-1,4.6-1.9,5.7c-0.9,1-1.5-2.3-1-4.3      c0.5-2-0.2-5.2-0.2-5.2c-0.2-2-2-2-2.9-1.4c-0.9,0.6-1.2,3.2-1.8,5.4c-0.6,2.2,0.7,1.5,0.6,3.7c-0.1,2.2-1.5,2.8-4.1,1.8      c-2.6-1-2.2-2-2.5-4.1C83,21.1,85.2,20.6,87.7,16.8z M31.8,12.8c2-3.2,2.6-4.5,4.3-2.7c1.7,1.8,1.8,2.8,4.3,6.7      c2.5,3.9,4.6,4.4,4.4,6.4c-0.3,2.1,0.1,3-2.5,4.1c-2.6,1-4,0.4-4.1-1.8c-0.1-2.2,1.1-1.5,0.6-3.7c-0.6-2.2-0.9-4.8-1.8-5.4      c-0.9-0.6-2.7-0.6-2.9,1.4c0,0-0.7,3.2-0.2,5.2c0.5,2-0.2,5.3-1,4.3c-0.9-1-2.1-1.2-1.9-5.7C31,17.1,29.8,16,31.8,12.8z       M97,62.9c-0.9,0.6-0.3,1.7,0.2,4.2c0.4,2.5-0.9,3.4-1.7,4.5c-0.8,1.1-0.9-0.4-1.8-0.4c-0.8-0.1-0.1,2.2-0.2,3.7      c-0.1,1.5-1.2,0.6-2,0.5c-0.8-0.1-0.5,0.5-0.8,1.9c-0.3,1.4-0.3,0.5-1.2,1.3c-0.9,0.8-0.3,1.5-0.3,3c-0.1,1.6-0.1,1.7-0.3,4.5      c-0.1,2.8-1.3,3.5-1.5,5c-0.2,1.5-1.4,2.8-2,2c-0.6-0.8-0.7-2.7-0.9-4.2c-0.3-1.5-0.9,2.3-1.2,3.6c-0.3,1.3-1.5,0.4-1.5-0.3      c0-0.8-0.7,0.6-1.1,1.5c-0.4,0.9-1.1,0.7-1.3-0.2c-0.1-0.9-1,0.3-1.4,0.7c-0.4,0.4-0.9,1.3-1.7,1.3c-0.8,0-0.4,1.4-0.8,2.4      c-0.3,1-0.7,0.6-1.5,0.3c-0.8-0.4-0.5,0.8-0.9,2c-0.4,1.3-1.6,1-2.1,0.4c-0.5-0.6-0.6,2.5-1,3.9c-0.4,1.3-0.9-0.2-2.3,2.6      c-1.3,2.8-1.1,3.3-1.9,6.1c-0.5,1.5-1.3,2-2,2.2c-0.7-0.2-1.6-0.7-2-2.2c-0.8-2.8-0.6-3.3-1.9-6.1c-1.3-2.8-1.9-1.3-2.3-2.6      c-0.4-1.3-0.5-4.4-1-3.9c-0.5,0.6-1.7,0.8-2.1-0.4c-0.4-1.3-0.1-2.4-0.9-2c-0.8,0.4-1.1,0.8-1.5-0.3c-0.3-1,0.1-2.4-0.8-2.4      c-0.8,0-1.3-0.9-1.7-1.3c-0.4-0.4-1.3-1.6-1.4-0.7c-0.1,0.9-0.9,1.1-1.3,0.2c-0.4-0.9-1.1-2.3-1.1-1.5c0,0.8-1.1,1.6-1.5,0.3      c-0.3-1.3-0.9-5.1-1.2-3.6c-0.3,1.5-0.4,3.3-0.9,4.2c-0.6,0.8-1.8-0.5-2-2c-0.2-1.5-1.4-2.1-1.5-5c-0.1-2.8-0.2-3-0.3-4.5      c-0.1-1.6,0.6-2.3-0.3-3c-0.9-0.8-0.9,0.1-1.2-1.3c-0.3-1.4,0-2-0.8-1.9c-0.8,0.1-1.9,1-2-0.5c-0.1-1.5,0.6-3.8-0.2-3.7      c-0.8,0.1-0.9,1.6-1.8,0.4c-0.8-1.1-2.1-2.1-1.7-4.5c0.4-2.5,1.1-3.6,0.2-4.2c-0.9-0.6-2-1.3-1.3-2.6c0.7-1.3-0.4-2.5,1.4-4.4      c1.8-1.9,1.8-1.5,1.5-4.2c-0.3-2.7-1-2.5-0.1-4c0.9-1.5,0.6-0.9,1.1-2.5c0.4-1.6,1.8-2.1,1.9-0.3c0,0,0.4,3.2,0.2,5.2      c-0.3,2-0.3,1.5,0.5,2.8c0.8,1.3,0.7,0.4,1.2,3c0.5,2.6,1.6,1,2.8,3.2c1.2,2.1,0.4,1.9,2.1,2.8c1.7,0.9,2.3-0.2,3.7,2      c1.4,2.2,1.5,0.8,1.7,3.5c0.2,1.6,0.2,2.5,0.4,3c0.2-0.5,0.5-1.1,0.9-1.7c2.7-4,4.1-5.1,3.8-7c-0.3-2,0.1-2.3-1.8-2.8      c-1.9-0.6-1.6-1.8-2.9-1.1c-1.3,0.6-1.4,0.7-1.9,0.6c0,0,0.4-1.1-0.6-1.2c-1-0.1-2-0.8-1.3-1.2c0.6-0.4-0.6-1.9-1.6-2.3      c-1-0.4-1.8-2.1-1.5-3.1c0.3-1,0.7-1.8,1.8-0.9c1.1,0.8,2.3-0.3,3.1,1.5c0.8,1.8,1.6,2.5,3.6,2.8c0.9,0.1,1.5,0,2,0      c0.6-0.1,1-0.2,1.5,0c0.8,0.4,1.5,2,1.8,0.9c0.3-1.1,0.1-1.6-0.3-2.1c-0.4-0.6-1.3-0.8-0.7-2c0.6-1.1,0.5-2-0.9-3.4      c-1.4-1.5-2.9-3.2-4.2-2.6c-1.3,0.6-1.1,1.7-3,1.8c-1.8,0.1-4.4,0.9-4.9-1.1c0,0,0-3.1,1.7-3c1.7,0.1,2.1,0.9,3-0.4      c0.9-1.3,3.4-4.2,6.6-3c3.2,1.3,5.9,4.9,5.9,7.4c0.1,2.5,0.5,4.1,0.6,5.2c0.1,1.1,0.8,2.3-0.8,5.2c-1.5,2.9-0.9,3.4-0.9,5.2      c0,1.8-0.4,4.4-0.9,7.2c-0.5,2.8-0.2,1.6,1.6,2.2c1.8,0.6,2.5-0.1,3.8-0.2c0.9,0,1.8-0.2,2.3-0.3c0.5,0.1,1.3,0.2,2.3,0.3      c1.3,0.1,2,0.8,3.8,0.2c1.8-0.6,2.1,0.6,1.6-2.2c-0.5-2.8-0.9-5.4-0.9-7.2c0-1.8,0.6-2.3-0.9-5.2c-1.5-2.9-0.9-4.2-0.8-5.2      c0.1-1.1,0.6-2.7,0.6-5.2c0.1-2.5,2.7-6.1,5.9-7.4c3.2-1.3,5.7,1.6,6.6,3c0.9,1.3,1.3,0.4,3,0.4c1.7-0.1,1.7,3,1.7,3      c-0.5,2.1-3,1.2-4.9,1.1c-1.8-0.1-1.7-1.2-3-1.8c-1.3-0.6-2.7,1.1-4.2,2.6c-1.5,1.5-1.6,2.3-0.9,3.4c0.6,1.1-0.3,1.4-0.7,2      c-0.4,0.6-0.6,1.1-0.3,2.1c0.3,1.1,1-0.5,1.8-0.9c0.4-0.2,0.9-0.1,1.5,0c0.5,0.1,1.2,0.2,2,0c2-0.3,2.8-1,3.6-2.8      c0.8-1.8,2-0.6,3.1-1.5c1.1-0.8,1.6-0.1,1.8,0.9c0.3,1-0.5,2.7-1.5,3.1c-1,0.4-2.2,1.8-1.6,2.3c0.6,0.4-0.3,1.1-1.3,1.2      c-1,0.1-0.6,1.2-0.6,1.2c-0.5,0.1-0.6,0-1.9-0.6c-1.3-0.6-1,0.6-2.9,1.1c-1.9,0.6-1.5,0.9-1.8,2.8c-0.3,2,1.1,3,3.8,7      c0.4,0.6,0.7,1.1,0.9,1.7c0.2-0.6,0.3-1.4,0.4-3c0.2-2.7,0.3-1.3,1.7-3.5c1.4-2.2,2-1.1,3.7-2c1.7-0.9,0.9-0.7,2.1-2.8      c1.2-2.1,2.3-0.6,2.8-3.2c0.5-2.6,0.4-1.7,1.2-3c0.8-1.3,0.8-0.8,0.5-2.8c-0.3-2,0.2-5.2,0.2-5.2c0.1-1.8,1.5-1.3,1.9,0.3      c0.4,1.6,0.1,1.1,1.1,2.5c0.9,1.5,0.3,1.3-0.1,4c-0.3,2.7-0.4,2.3,1.5,4.2c1.8,1.9,0.7,3.1,1.4,4.4C99,61.6,97.9,62.3,97,62.9z       M48.1,49.4c1-0.3,2.1-0.4,2.8,0.2c0.7,0.6,1,1.7,0.6,2.4c-0.4,0.8-1.5,0.8-2.5,0.4c-1-0.4-1.1-0.1-1.6-1.2      C47.5,51.2,47.2,49.7,48.1,49.4z M80.5,51.2C80,52.3,80,52,79,52.4c-1,0.4-2.1,0.3-2.5-0.4c-0.4-0.8-0.2-1.8,0.6-2.4      c0.7-0.6,1.9-0.5,2.8-0.2C80.8,49.7,80.5,51.2,80.5,51.2z"/></g></g></g></switch></svg>
